<?xml version="1.0" standalone="no"?>
<!DOCTYPE svg PUBLIC "-//W3C//DTD SVG 20010904//EN"
 "http://www.w3.org/TR/2001/REC-SVG-20010904/DTD/svg10.dtd">
<svg version="1.0" xmlns="http://www.w3.org/2000/svg"
 width="4000pt" height="1751.000000pt" viewBox="0 0 2480.000000 1751.000000"
 preserveAspectRatio="xMidYMid meet">

<g transform="translate(0.000000,1751.000000) scale(0.100000,-0.100000)"
fill="#a81e22" stroke="none">
<path d="M5025 12744 c-547 -55 -981 -225 -1310 -512 -241 -210 -414 -507
-486 -834 -29 -133 -37 -417 -16 -553 70 -440 322 -792 771 -1079 207 -132
412 -229 744 -350 688 -252 918 -437 939 -756 10 -165 -38 -294 -156 -410 -90
-90 -199 -148 -346 -185 -388 -99 -982 -27 -1509 182 -78 30 -171 71 -208 89
l-67 34 -10 -38 c-6 -20 -62 -248 -126 -507 -63 -258 -118 -478 -121 -487 -6
-21 47 -50 210 -113 546 -213 1280 -294 1901 -209 563 77 1060 315 1341 642
180 208 297 444 354 713 28 128 39 435 21 575 -83 636 -505 1074 -1356 1408
-389 153 -521 208 -641 267 -309 150 -449 294 -473 486 -38 302 187 531 584
594 98 15 373 15 515 0 253 -28 558 -109 775 -205 89 -40 101 -43 107 -28 12
27 279 1004 276 1007 -9 8 -244 96 -315 119 -182 57 -396 103 -615 132 -117
16 -677 28 -783 18z"/>
<path d="M14915 12714 c-462 -36 -845 -120 -1194 -264 -772 -317 -1307 -880
-1561 -1640 -182 -546 -209 -1240 -70 -1805 162 -657 515 -1170 1045 -1517
415 -272 908 -421 1555 -469 197 -15 716 -6 900 15 442 50 914 148 1263 262
l77 26 0 1474 0 1474 -1040 0 -1040 0 0 -495 0 -495 430 0 430 0 -2 -587 -3
-587 -60 -19 c-170 -52 -574 -73 -812 -43 -608 78 -1053 379 -1299 881 -149
304 -215 640 -201 1025 19 526 178 926 486 1230 248 244 560 393 976 467 143
25 701 25 890 0 260 -35 494 -93 694 -172 49 -19 92 -35 97 -35 5 0 68 222
138 493 71 270 131 497 133 503 8 24 -236 113 -452 164 -153 37 -378 75 -565
95 -138 15 -695 28 -815 19z"/>
<path d="M9495 11213 c-365 -29 -665 -121 -932 -284 -506 -310 -847 -876 -939
-1559 -20 -150 -23 -474 -5 -630 109 -943 690 -1557 1626 -1715 455 -77 1083
-47 1584 75 121 30 390 115 403 128 3 4 -31 196 -76 427 l-81 420 -25 -1 c-14
-1 -77 -15 -140 -33 -302 -82 -559 -115 -910 -115 -203 -1 -275 3 -350 17
-429 79 -706 275 -804 567 -13 41 -28 99 -32 128 l-7 52 1306 0 c1235 0 1306
1 1311 18 20 72 31 237 30 487 0 238 -3 301 -22 420 -136 862 -611 1412 -1346
1560 -186 37 -419 52 -591 38z m280 -858 c292 -76 485 -342 512 -707 l6 -88
-747 0 c-641 0 -746 2 -746 14 0 8 7 48 15 88 59 285 208 513 408 627 60 34
154 67 229 81 72 12 249 5 323 -15z"/>
<path d="M19340 11214 c-358 -21 -735 -94 -1028 -200 -130 -47 -342 -142 -342
-153 0 -10 227 -802 231 -805 2 -2 66 27 141 64 223 110 500 191 757 221 152
17 423 7 531 -20 278 -70 430 -246 430 -496 l0 -52 -217 -6 c-610 -17 -1112
-137 -1477 -351 -311 -183 -523 -438 -620 -744 -42 -134 -58 -231 -63 -393 -5
-120 -2 -180 11 -260 83 -504 437 -883 938 -1004 153 -37 332 -50 497 -36 400
34 704 166 946 409 45 45 86 82 92 82 5 0 24 -82 42 -182 18 -101 35 -193 38
-205 l5 -23 570 0 c538 0 569 1 564 18 -12 39 -36 300 -46 491 -5 112 -10 614
-10 1115 0 538 -4 956 -10 1021 -34 365 -118 627 -280 869 -233 348 -599 550
-1125 621 -110 15 -452 26 -575 19z m760 -2496 c0 -144 -5 -291 -11 -327 -6
-37 -29 -104 -51 -151 -57 -119 -177 -239 -298 -298 -118 -58 -194 -76 -320
-76 -306 0 -491 174 -494 464 -1 109 14 180 56 264 121 241 476 381 976 385
l142 1 0 -262z"/>
<path d="M15146 6319 c-395 -58 -659 -297 -721 -654 -78 -449 141 -823 540
-924 221 -57 523 -43 789 34 l56 16 0 420 0 419 -295 0 -295 0 0 -140 0 -140
120 0 120 0 0 -165 0 -165 -27 -11 c-36 -13 -216 -13 -278 1 -174 39 -301 169
-350 355 -18 69 -20 212 -4 287 40 187 172 318 365 364 96 23 310 14 409 -16
39 -12 79 -24 91 -26 19 -5 23 6 57 134 20 77 37 142 37 145 0 10 -143 48
-235 62 -107 16 -283 18 -379 4z"/>
<path d="M16617 5885 c-83 -31 -146 -92 -194 -189 l-20 -39 -6 69 c-4 38 -7
88 -7 112 l0 42 -157 0 -156 0 6 -122 c4 -66 7 -327 7 -580 l0 -458 180 0 180
0 0 333 c0 327 1 333 24 382 13 28 38 63 55 78 47 39 131 61 208 54 l63 -6 0
169 0 170 -72 -1 c-40 0 -90 -7 -111 -14z"/>
<path d="M17332 5880 c-223 -60 -374 -221 -417 -444 -43 -227 12 -435 152
-575 111 -111 247 -163 428 -163 187 0 327 54 446 172 112 112 162 245 163
435 0 281 -126 471 -373 563 -94 35 -293 41 -399 12z m229 -241 c90 -30 151
-124 169 -261 21 -150 -26 -322 -103 -380 -77 -59 -176 -58 -249 2 -109 90
-140 351 -63 515 49 103 152 155 246 124z"/>
<path d="M20273 5885 c-80 -22 -131 -52 -194 -112 l-57 -54 -7 81 -7 80 -156
0 -155 0 6 -262 c4 -145 7 -512 7 -815 l0 -553 175 0 175 0 0 285 c0 157 2
285 4 285 2 0 19 -14 37 -32 100 -93 292 -118 452 -58 157 59 282 216 322 406
19 89 19 259 0 349 -34 163 -139 306 -273 372 -70 35 -82 38 -176 40 -66 2
-119 -2 -153 -12z m95 -280 c20 -9 54 -32 75 -53 111 -109 113 -390 3 -510
-32 -36 -92 -63 -150 -69 -42 -4 -60 0 -106 24 -103 53 -136 139 -128 333 5
118 21 166 71 219 63 66 156 88 235 56z"/>
<path d="M18324 5865 c-3 -8 -4 -191 -1 -407 4 -424 7 -450 63 -565 51 -106
150 -174 277 -192 145 -20 287 26 381 124 l53 55 7 -46 c3 -26 6 -62 6 -80 l0
-34 158 0 157 0 -3 567 c-1 313 -4 574 -7 581 -3 9 -49 12 -180 12 l-175 0 0
-351 c0 -222 -4 -366 -11 -394 -14 -56 -69 -120 -115 -135 -20 -7 -61 -10 -90
-8 -43 4 -61 11 -85 34 -63 59 -64 62 -69 474 l-5 375 -178 3 c-150 2 -178 0
-183 -13z"/>
<path d="M3120 5490 l0 -250 4950 0 4950 0 0 250 0 250 -4950 0 -4950 0 0
-250z"/>
<path d="M21350 5108 c-66 -34 -103 -93 -108 -172 -2 -36 1 -81 8 -101 17 -51
73 -111 117 -126 51 -17 135 -14 177 6 121 57 154 228 68 344 -52 70 -175 93
-262 49z"/>
</g>
</svg>
